<svg width="82" height="16" viewBox="0 0 82 16" fill="none" xmlns="http://www.w3.org/2000/svg">
<path d="M16.0214 8.0459L19.936 11.9605L16.0214 15.8751L12.1068 11.9605L16.0214 8.0459Z" fill="#BC4749"/>
<path d="M8.18842 8.04199L12.1013 11.9548L8.18842 15.8677L4.27557 11.9548L8.18842 8.04199Z" fill="#161616"/>
<rect x="12.1124" y="4.13477" width="5.541" height="5.541" transform="rotate(45 12.1124 4.13477)" fill="#BC4749"/>
<rect x="4.28326" y="4.13477" width="5.541" height="5.541" transform="rotate(45 4.28326 4.13477)" fill="#BC4749"/>
<path d="M16.0251 0.216797L19.9432 4.13488L16.0251 8.05296L12.1071 4.13488L16.0251 0.216797Z" fill="white"/>
<path d="M8.19598 0.216797L12.1141 4.13488L8.19598 8.05296L4.2779 4.13488L8.19598 0.216797Z" fill="#BC4749"/>
<rect x="19.9397" y="4.13135" width="5.541" height="5.541" transform="rotate(45 19.9397 4.13135)" fill="#BC4749"/>
<path d="M12.1124 4.13135L16.0305 8.04943L12.1124 11.9675L8.19435 8.04943L12.1124 4.13135Z" fill="#BC4749"/>
<path d="M27.8787 5.67266V4.2216H34.7154V5.67266H32.1669V12.5459H30.4273V5.67266H27.8787ZM37.7486 12.6678C37.1064 12.6678 36.5536 12.5378 36.0903 12.2776C35.6296 12.0148 35.2746 11.6436 35.0253 11.1639C34.776 10.6816 34.6514 10.1112 34.6514 9.45274C34.6514 8.81053 34.776 8.24691 35.0253 7.76186C35.2746 7.27682 35.6255 6.89881 36.0781 6.62784C36.5333 6.35687 37.0671 6.22138 37.6795 6.22138C38.0914 6.22138 38.4748 6.28777 38.8298 6.42055C39.1875 6.55061 39.4991 6.74707 39.7647 7.00991C40.0329 7.27276 40.2416 7.60335 40.3906 8.00168C40.5396 8.3973 40.6142 8.86066 40.6142 9.39177V9.86733H35.3424V8.79427H38.9843C38.9843 8.54498 38.9301 8.32413 38.8217 8.13174C38.7133 7.93935 38.5629 7.78896 38.3705 7.68057C38.1808 7.56947 37.96 7.51392 37.708 7.51392C37.4451 7.51392 37.2121 7.57489 37.0089 7.69683C36.8083 7.81606 36.6512 7.97729 36.5374 8.18052C36.4236 8.38104 36.3653 8.60459 36.3626 8.85118V9.87139C36.3626 10.1803 36.4195 10.4472 36.5333 10.6721C36.6498 10.897 36.8138 11.0704 37.0251 11.1924C37.2365 11.3143 37.4871 11.3753 37.7771 11.3753C37.9695 11.3753 38.1456 11.3482 38.3055 11.294C38.4653 11.2398 38.6022 11.1585 38.716 11.0501C38.8298 10.9417 38.9165 10.809 38.9761 10.6518L40.5776 10.7575C40.4963 11.1423 40.3296 11.4783 40.0776 11.7655C39.8283 12.05 39.5059 12.2722 39.1103 12.4321C38.7173 12.5893 38.2635 12.6678 37.7486 12.6678ZM46.9387 8.08297L45.3535 8.18052C45.3264 8.04503 45.2681 7.92309 45.1787 7.8147C45.0893 7.70361 44.9714 7.61554 44.8251 7.55051C44.6815 7.48276 44.5094 7.44889 44.3089 7.44889C44.0406 7.44889 43.8144 7.50579 43.6301 7.6196C43.4458 7.7307 43.3537 7.87974 43.3537 8.06671C43.3537 8.21574 43.4133 8.34175 43.5325 8.44472C43.6518 8.54769 43.8564 8.63033 44.1463 8.69266L45.2763 8.92028C45.8832 9.04492 46.3358 9.24544 46.6338 9.52184C46.9319 9.79823 47.0809 10.1613 47.0809 10.6111C47.0809 11.0203 46.9604 11.3794 46.7192 11.6883C46.4807 11.9972 46.1529 12.2383 45.7356 12.4118C45.321 12.5825 44.8427 12.6678 44.3007 12.6678C43.4743 12.6678 42.8158 12.4958 42.3254 12.1516C41.8376 11.8048 41.5517 11.3333 41.4677 10.7372L43.1708 10.6477C43.2223 10.8997 43.3469 11.0921 43.5447 11.2249C43.7425 11.355 43.9959 11.42 44.3048 11.42C44.6083 11.42 44.8522 11.3617 45.0364 11.2452C45.2234 11.126 45.3183 10.9729 45.321 10.7859C45.3183 10.6288 45.2519 10.5 45.1218 10.3998C44.9917 10.2968 44.7912 10.2182 44.5202 10.164L43.4391 9.94862C42.8294 9.82668 42.3755 9.61532 42.0774 9.31454C41.7821 9.01376 41.6344 8.63033 41.6344 8.16426C41.6344 7.76322 41.7428 7.41773 41.9595 7.12779C42.179 6.83785 42.4866 6.61429 42.8822 6.45713C43.2805 6.29996 43.7466 6.22138 44.2804 6.22138C45.069 6.22138 45.6895 6.38803 46.142 6.72133C46.5972 7.05462 46.8628 7.5085 46.9387 8.08297ZM51.492 6.30267V7.60335H47.7323V6.30267H51.492ZM48.5859 4.8069H50.3174V10.6274C50.3174 10.7873 50.3418 10.9119 50.3905 11.0014C50.4393 11.0881 50.5071 11.149 50.5938 11.1843C50.6832 11.2195 50.7862 11.2371 50.9027 11.2371C50.984 11.2371 51.0653 11.2303 51.1466 11.2168C51.2278 11.2005 51.2902 11.1883 51.3335 11.1802L51.6059 12.4687C51.5191 12.4958 51.3972 12.5269 51.24 12.5622C51.0829 12.6001 50.8918 12.6231 50.6669 12.6313C50.2496 12.6475 49.8838 12.592 49.5695 12.4646C49.2579 12.3372 49.0153 12.1394 48.8419 11.8712C48.6685 11.6029 48.5831 11.2642 48.5859 10.855V4.8069ZM54.9845 5.67266V4.2216H61.8212V5.67266H59.2727V12.5459H57.5331V5.67266H54.9845ZM63.8454 12.6638C63.447 12.6638 63.0921 12.5947 62.7805 12.4565C62.4688 12.3156 62.2222 12.1083 62.0407 11.8346C61.8619 11.5582 61.7724 11.2141 61.7724 10.8022C61.7724 10.4553 61.8361 10.164 61.9635 9.9283C62.0908 9.69255 62.2642 9.50287 62.4837 9.35925C62.7032 9.21564 62.9525 9.10725 63.2316 9.03408C63.5134 8.96092 63.8088 8.90944 64.1177 8.87963C64.4808 8.84169 64.7735 8.80647 64.9957 8.77395C65.2179 8.73872 65.3791 8.68724 65.4793 8.6195C65.5796 8.55175 65.6297 8.45149 65.6297 8.31871V8.29433C65.6297 8.0369 65.5484 7.83774 65.3859 7.69683C65.226 7.55592 64.9984 7.48547 64.703 7.48547C64.3914 7.48547 64.1434 7.55457 63.9592 7.69277C63.7749 7.82825 63.653 7.99897 63.5934 8.20491L61.9919 8.07484C62.0732 7.69548 62.2331 7.3676 62.4715 7.09121C62.71 6.8121 63.0176 6.59803 63.3942 6.449C63.7736 6.29725 64.2125 6.22138 64.7111 6.22138C65.058 6.22138 65.3899 6.26203 65.707 6.34332C66.0267 6.42461 66.3099 6.55061 66.5565 6.72133C66.8058 6.89204 67.0022 7.11153 67.1458 7.37979C67.2894 7.64535 67.3613 7.96374 67.3613 8.33497V12.5459H65.7192V11.6801H65.6704C65.5701 11.8752 65.436 12.0473 65.268 12.1963C65.1 12.3427 64.8981 12.4578 64.6624 12.5418C64.4266 12.6231 64.1543 12.6638 63.8454 12.6638ZM64.3413 11.4688C64.596 11.4688 64.8209 11.4186 65.016 11.3184C65.2111 11.2154 65.3642 11.0772 65.4753 10.9038C65.5864 10.7304 65.6419 10.5339 65.6419 10.3144V9.6519C65.5877 9.68713 65.5132 9.71965 65.4184 9.74945C65.3262 9.77655 65.2219 9.80229 65.1054 9.82668C64.9889 9.84836 64.8724 9.86868 64.7558 9.88765C64.6393 9.90391 64.5336 9.91881 64.4388 9.93236C64.2356 9.96217 64.0581 10.0096 63.9063 10.0746C63.7546 10.1397 63.6367 10.2277 63.5527 10.3388C63.4687 10.4472 63.4267 10.5827 63.4267 10.7453C63.4267 10.981 63.5121 11.1612 63.6828 11.2859C63.8562 11.4078 64.0757 11.4688 64.3413 11.4688ZM73.8992 8.08297L72.314 8.18052C72.2869 8.04503 72.2286 7.92309 72.1392 7.8147C72.0498 7.70361 71.9319 7.61554 71.7856 7.55051C71.642 7.48276 71.4699 7.44889 71.2694 7.44889C71.0011 7.44889 70.7748 7.50579 70.5906 7.6196C70.4063 7.7307 70.3142 7.87974 70.3142 8.06671C70.3142 8.21574 70.3738 8.34175 70.493 8.44472C70.6123 8.54769 70.8168 8.63033 71.1068 8.69266L72.2367 8.92028C72.8437 9.04492 73.2962 9.24544 73.5943 9.52184C73.8924 9.79823 74.0414 10.1613 74.0414 10.6111C74.0414 11.0203 73.9208 11.3794 73.6797 11.6883C73.4412 11.9972 73.1133 12.2383 72.696 12.4118C72.2815 12.5825 71.8032 12.6678 71.2612 12.6678C70.4348 12.6678 69.7763 12.4958 69.2858 12.1516C68.7981 11.8048 68.5122 11.3333 68.4282 10.7372L70.1313 10.6477C70.1828 10.8997 70.3074 11.0921 70.5052 11.2249C70.703 11.355 70.9564 11.42 71.2653 11.42C71.5688 11.42 71.8127 11.3617 71.9969 11.2452C72.1839 11.126 72.2787 10.9729 72.2815 10.7859C72.2787 10.6288 72.2124 10.5 72.0823 10.3998C71.9522 10.2968 71.7517 10.2182 71.4807 10.164L70.3995 9.94862C69.7899 9.82668 69.336 9.61532 69.0379 9.31454C68.7425 9.01376 68.5949 8.63033 68.5949 8.16426C68.5949 7.76322 68.7032 7.41773 68.92 7.12779C69.1395 6.83785 69.4471 6.61429 69.8427 6.45713C70.241 6.29996 70.7071 6.22138 71.2409 6.22138C72.0294 6.22138 72.65 6.38803 73.1025 6.72133C73.5577 7.05462 73.8233 7.5085 73.8992 8.08297ZM76.7007 10.7493L76.7048 8.67233H76.9568L78.9565 6.30267H80.9441L78.2574 9.44054H77.8469L76.7007 10.7493ZM75.1318 12.5459V4.2216H76.8633V12.5459H75.1318ZM79.0338 12.5459L77.1966 9.82668L78.3509 8.60324L81.062 12.5459H79.0338Z" fill="white"/>
<path d="M27.4723 8.79834H81.0986V9.57874H27.4723V8.79834Z" fill="white"/>
</svg>
